<svg viewBox="0 0 200 200" xmlns="http://www.w3.org/2000/svg">
  <!-- Background -->
  <rect width="200" height="200" rx="40" fill="none" />

  <!-- Neural Network Nodes -->
  <!-- Input Layer -->
  <circle cx="40" cy="50" r="10" fill="#60A5FA" />
  <circle cx="40" cy="100" r="10" fill="#60A5FA" />
  <circle cx="40" cy="150" r="10" fill="#60A5FA" />

  <!-- Hidden Layer 1 -->
  <circle cx="100" cy="35" r="8" fill="#F472B6" />
  <circle cx="100" cy="75" r="8" fill="#F472B6" />
  <circle cx="100" cy="115" r="8" fill="#F472B6" />
  <circle cx="100" cy="155" r="8" fill="#F472B6" />

  <!-- Output Layer -->
  <circle cx="160" cy="65" r="10" fill="#34D399" />
  <circle cx="160" cy="135" r="10" fill="#34D399" />

  <!-- Connections between Input and Hidden Layer -->
  <!-- Input 1 connections -->
  <line x1="48" y1="48" x2="92" y2="36" stroke="#94A3B8" stroke-width="1.5" />
  <line x1="48" y1="52" x2="92" y2="74" stroke="#94A3B8" stroke-width="1.5" />
  <line x1="48" y1="55" x2="92" y2="114" stroke="#94A3B8" stroke-width="1.5" opacity="0.7" />
  <line x1="48" y1="58" x2="92" y2="154" stroke="#94A3B8" stroke-width="1.5" opacity="0.5" />

  <!-- Input 2 connections -->
  <line x1="48" y1="96" x2="92" y2="37" stroke="#94A3B8" stroke-width="1.5" opacity="0.5" />
  <line x1="48" y1="100" x2="92" y2="75" stroke="#94A3B8" stroke-width="1.5" />
  <line x1="48" y1="104" x2="92" y2="115" stroke="#94A3B8" stroke-width="1.5" />
  <line x1="48" y1="106" x2="92" y2="155" stroke="#94A3B8" stroke-width="1.5" opacity="0.7" />

  <!-- Input 3 connections -->
  <line x1="48" y1="146" x2="92" y2="35" stroke="#94A3B8" stroke-width="1.5" opacity="0.5" />
  <line x1="48" y1="148" x2="92" y2="76" stroke="#94A3B8" stroke-width="1.5" opacity="0.7" />
  <line x1="48" y1="150" x2="92" y2="115" stroke="#94A3B8" stroke-width="1.5" />
  <line x1="48" y1="154" x2="92" y2="155" stroke="#94A3B8" stroke-width="1.5" />

  <!-- Connections between Hidden and Output Layer -->
  <!-- Hidden 1 connections -->
  <line x1="108" y1="35" x2="150" y2="65" stroke="#94A3B8" stroke-width="1.5" />
  <line x1="108" y1="38" x2="150" y2="134" stroke="#94A3B8" stroke-width="1.5" opacity="0.6" />

  <!-- Hidden 2 connections -->
  <line x1="108" y1="75" x2="150" y2="65" stroke="#94A3B8" stroke-width="1.5" />
  <line x1="108" y1="78" x2="150" y2="134" stroke="#94A3B8" stroke-width="1.5" opacity="0.7" />

  <!-- Hidden 3 connections -->
  <line x1="108" y1="115" x2="150" y2="67" stroke="#94A3B8" stroke-width="1.5" opacity="0.7" />
  <line x1="108" y1="115" x2="150" y2="135" stroke="#94A3B8" stroke-width="1.5" />

  <!-- Hidden 4 connections -->
  <line x1="108" y1="155" x2="150" y2="67" stroke="#94A3B8" stroke-width="1.5" opacity="0.6" />
  <line x1="108" y1="155" x2="150" y2="135" stroke="#94A3B8" stroke-width="1.5" />

  <!-- Glow effects -->
  <circle cx="40" cy="50" r="12" fill="#60A5FA" opacity="0.3" />
  <circle cx="40" cy="100" r="12" fill="#60A5FA" opacity="0.3" />
  <circle cx="40" cy="150" r="12" fill="#60A5FA" opacity="0.3" />
  <circle cx="160" cy="65" r="12" fill="#34D399" opacity="0.3" />
  <circle cx="160" cy="135" r="12" fill="#34D399" opacity="0.3" />
</svg>
